<svg xmlns="http://www.w3.org/2000/svg" viewBox="0 0 360 150" fill="none">
  <path d="M18 121C60 147 67 66 121 93s72 8 85-29 59 23 107-24" stroke="#b5a8ce" stroke-width="2" stroke-linecap="round" stroke-dasharray="3 8"/>
  <circle cx="21" cy="120" r="8" fill="#e6eedf"/>
  <circle cx="21" cy="120" r="3" fill="#679879"/>
  <path d="M121 69c-10 0-18 8-18 18 0 13 18 27 18 27s18-14 18-27c0-10-8-18-18-18Z" fill="#ed98b5"/>
  <circle cx="121" cy="87" r="6" fill="#fffaf7"/>
  <rect x="187" y="34" width="35" height="37" rx="11" transform="rotate(12 187 34)" fill="#eee8f6" stroke="#cec1e0"/>
  <path d="m194 49 10 2m-12 5 16 3" stroke="#857398" stroke-width="2" stroke-linecap="round"/>
  <path d="M310 20c-10 0-18 8-18 18 0 13 18 27 18 27s18-14 18-27c0-10-8-18-18-18Z" fill="#89ae97"/>
  <circle cx="310" cy="38" r="6" fill="#fffaf7"/>
  <path d="m265 93 3 7 7 3-7 3-3 7-3-7-7-3 7-3 3-7Z" fill="#e1b874"/>
  <circle cx="67" cy="37" r="3" fill="#e1b874"/>
  <circle cx="345" cy="97" r="3" fill="#d6bddc"/>
</svg>
